PathFileType	4	(X/Y/Z)	Run_200 02
DataRate	CameraRate	NumFrames	NumMarkers	Units	OrigDataRate	OrigDataStartFrame	OrigNumFrames
100	100	4	42	mm	100	145	128
Frame#	Time	RASI			LPSI			RPSI			RTH2			RTH3			LTH1			LTH2			LTH3			RTB1			RTB2			LTB1			LTB2			LTB3			RCAL			RMT5			LCAL			LTOE			LMT5			LACR			RACR			CLAV			C7			RUA1			RUA2			RUA3			RLEL			LUA1			LUA2			LUA3			LLEL			RFAsuperior			RFAradius			RFAulna			LFAsuperior			LFAradius			LFAulna			RTOE			RTH1			LMEL			RTB3			RMEL			LASI		
		X1	Y1	Z1	X2	Y2	Z2	X3	Y3	Z3	X4	Y4	Z4	X5	Y5	Z5	X6	Y6	Z6	X7	Y7	Z7	X8	Y8	Z8	X9	Y9	Z9	X10	Y10	Z10	X11	Y11	Z11	X12	Y12	Z12	X13	Y13	Z13	X14	Y14	Z14	X15	Y15	Z15	X16	Y16	Z16	X17	Y17	Z17	X18	Y18	Z18	X19	Y19	Z19	X20	Y20	Z20	X21	Y21	Z21	X22	Y22	Z22	X23	Y23	Z23	X24	Y24	Z24	X25	Y25	Z25	X26	Y26	Z26	X27	Y27	Z27	X28	Y28	Z28	X29	Y29	Z29	X30	Y30	Z30	X31	Y31	Z31	X32	Y32	Z32	X33	Y33	Z33	X34	Y34	Z34	X35	Y35	Z35	X36	Y36	Z36	X37	Y37	Z37	X38	Y38	Z38	X39	Y39	Z39	X40	Y40	Z40	X41	Y41	Z41	X42	Y42	Z42	

145	  1.450000	1041.489054	1014.210098	-236.743152	871.757691	1078.944793	-408.613014	876.981290	1069.041957	-295.267715	923.967084	745.143247	-199.773134	969.997609	594.165853	-207.662754	990.730793	900.800690	-537.577509	970.074712	736.974771	-484.040456	1060.495696	624.404586	-478.628283	887.132012	376.478890	-268.776728	813.867038	422.300408	-193.431756	1133.274626	410.561661	-397.088942	1031.628865	318.925283	-450.496846	1053.358639	206.649104	-381.305923	546.086015	369.303671	-246.885276	575.954456	164.579239	-198.302075	895.561252	 98.489074	-357.356760	1132.590281	 74.707547	-342.784674	1086.027778	 37.224729	-438.002871	1010.084628	1503.993825	-522.456392	1059.633308	1484.449563	-200.193481	1100.978645	1452.185790	-337.086718	977.508769	1527.038872	-358.710143	948.687473	1396.888641	-128.218798	988.432683	1329.512953	-109.081738	921.195978	1256.736500	-64.483042	884.674063	1203.625575	-36.706584	898.046757	1418.125953	-572.526811	916.564936	1336.704559	-595.530976	834.360153	1281.065042	-610.590848	806.173598	1218.986433	-628.652445	963.607877	1127.626380	-53.074564	1083.862283	1055.286374	-168.556481	1064.568187	1017.008865	-114.677970	867.179454	1159.014409	-631.834508	1044.910327	1142.226400	-563.016148	1028.162588	1080.703091	-595.854089	614.267954	141.148127	-294.826489	973.024064	891.266791	-189.313372	802.939966	1197.856491	-539.899556	706.197922	315.344845	-264.548277	866.483592	1182.696071	-122.260452	1063.312458	1000.990299	-483.296554	
146	  1.460000	1038.668768	1009.761804	-235.987755	870.860635	1074.026978	-409.786509	874.424513	1064.277615	-296.238876	927.010472	739.766745	-202.355008	978.957045	590.296113	-207.821201	991.106615	896.170982	-537.186153	968.047009	732.464646	-483.028916	1057.176243	618.801345	-477.492123	899.848023	374.529945	-268.743663	827.340369	420.832570	-192.568955	1125.215181	403.521275	-395.963947	1020.476694	314.930992	-449.077597	1037.653846	202.553188	-379.934954	557.201649	370.157089	-245.958461	590.123908	166.233237	-196.325768	875.836653	 98.823522	-356.845174	1112.855307	 73.769678	-342.235978	1066.300146	 38.102910	-439.760582	1008.969635	1498.217513	-523.286614	1057.717504	1479.927480	-200.430424	1099.953630	1447.240775	-337.212065	976.300577	1522.130523	-359.366536	945.475113	1392.861421	-129.603335	984.532812	1325.102487	-110.316429	915.398072	1252.922864	-66.987800	877.804891	1200.215008	-39.421790	900.290165	1407.565750	-572.295024	921.255488	1326.840317	-596.352876	841.779951	1267.601309	-612.599848	816.112236	1204.901165	-631.398177	954.193080	1120.193197	-51.426122	1072.669332	1036.776523	-162.193301	1050.584626	1003.048440	-106.805820	877.290656	1144.442731	-633.463505	1053.742353	1126.861202	-561.595380	1037.372286	1066.068236	-595.212573	627.964283	142.650111	-293.090868	971.686856	887.284589	-189.175907	811.450475	1184.002098	-542.720166	718.419320	315.483307	-263.718238	861.906346	1178.280921	-124.849052	1060.424443	996.527840	-482.601320	
147	  1.470000	1035.699962	1006.929614	-234.769237	870.113249	1070.791475	-411.305911	871.941728	1060.843417	-297.808092	930.220814	735.657051	-204.649876	988.149777	587.655745	-208.105538	991.492747	892.893673	-536.870718	965.019445	729.535287	-482.987052	1052.535678	614.258899	-476.852067	913.528804	373.792728	-268.803494	841.182494	419.849590	-192.045210	1115.593122	397.612535	-394.898779	1008.663318	311.803880	-448.108085	1021.434723	199.492879	-378.772897	569.000710	369.614662	-245.475771	606.409302	166.823050	-194.587416	856.021348	 99.254267	-356.515060	1092.996246	 73.322782	-341.802148	1046.713027	 39.270679	-441.806681	1008.582407	1493.815739	-524.002825	1055.682390	1476.506995	-200.607124	1098.819201	1443.449373	-337.207001	974.857737	1518.255593	-360.140808	942.096537	1389.902234	-131.069889	980.524479	1322.047344	-111.271164	909.585475	1250.792578	-69.109092	871.250396	1198.402152	-41.670119	902.594823	1398.844852	-571.024199	925.891797	1319.449061	-597.382294	849.520556	1256.658661	-614.527548	827.060650	1193.032574	-633.858442	945.116955	1114.876084	-49.819555	1060.470289	1020.346638	-155.815934	1036.502596	991.804648	-98.821081	888.604293	1132.669253	-634.875995	1063.137276	1113.026265	-559.394913	1047.017672	1053.040028	-594.409823	644.144726	143.321191	-291.585932	969.070597	883.843751	-189.538235	820.135312	1172.342715	-545.228705	731.846659	315.352699	-263.326181	857.539910	1175.220102	-126.962052	1057.388062	993.680444	-481.441986	
148	  1.480000	1033.025233	1005.108624	-233.456121	869.476750	1069.195268	-412.750188	869.958473	1058.674067	-299.677169	933.664640	732.937258	-206.317368	997.494296	586.310355	-208.265274	991.467381	890.970662	-536.875066	961.355627	727.973876	-483.959865	1046.922312	610.902771	-476.724626	928.151824	374.239635	-268.682567	855.231437	419.390608	-191.873772	1104.629103	393.132013	-393.957580	996.003564	310.022550	-447.653476	1004.784482	197.634779	-378.205270	581.437204	367.632347	-245.442605	624.318874	166.327520	-193.123981	836.249023	 99.876524	-356.414971	1073.147383	 73.043013	-341.589545	1026.756240	 39.511447	-442.180018	1009.201709	1490.745913	-524.736115	1053.436000	1474.187612	-200.780000	1097.635337	1441.139006	-337.028549	973.577609	1515.893139	-361.226442	938.442366	1388.061881	-132.555586	976.164510	1320.429279	-111.830196	903.490592	1250.303138	-70.726403	864.636807	1198.437601	-43.191185	905.293034	1392.260177	-570.281470	930.813088	1314.191054	-598.396580	857.216080	1248.529807	-616.141405	837.986874	1184.045377	-635.932594	935.945593	1111.831389	-47.978166	1047.463596	1006.905583	-149.504964	1022.459791	983.569866	-90.907751	900.146917	1124.221545	-636.022352	1072.649893	1102.049854	-556.858821	1056.787531	1042.504200	-593.094627	662.464927	143.056220	-290.272804	965.783174	881.104155	-190.104694	828.685399	1163.397629	-547.365584	746.207955	314.945257	-263.311347	852.852579	1173.843898	-128.447636	1054.645989	991.843360	-480.187547	
